<svg width="17" height="13" viewBox="0 0 17 13" fill="none" xmlns="http://www.w3.org/2000/svg">
<g id="Group 21365">
<g id="color">
<path id="Vector" d="M15.6839 6.30193C15.6028 6.05871 15.4537 5.62093 15.0353 5.32907C14.5294 4.97884 13.8582 5.00154 13.7382 5.00478C13.4917 5.01451 13.3555 5.05667 13.0896 5.00478C12.9015 4.96587 12.5934 4.9075 12.441 4.6805C12.3113 4.48917 12.3924 4.33027 12.441 3.70764C12.4799 3.21796 12.4961 2.97151 12.441 2.73478C12.321 2.2224 11.9578 1.9046 11.7924 1.76192C11.4519 1.46357 11.0206 1.25603 10.171 1.11334C9.58078 1.01282 8.63061 0.918772 7.25238 1.11334C6.55516 1.21063 5.48176 1.39547 4.65807 1.67112C4.08408 1.8592 3.44523 2.12836 2.71233 2.64398C2.70585 2.64722 2.69936 2.65046 2.69612 2.65371C1.58056 3.38011 0.9482 4.66428 1.00333 5.9971C1.29843 13.1541 14.2441 14.0556 15.6839 7.92336C15.7131 7.72879 15.9401 7.064 15.6839 6.30193ZM8.94193 4.39512C8.44577 4.39512 8.04689 3.99301 8.04689 3.50009C8.04689 3.00394 8.44577 2.60506 8.94193 2.60506H9.82075C10.3137 2.60506 10.7158 3.00394 10.7158 3.50009C10.7158 3.74655 10.6153 3.97031 10.4531 4.13245C10.291 4.2946 10.0672 4.39512 9.82075 4.39512H8.94193Z" fill="#A57939"/>
<path id="Vector_2" d="M3.03537 6.30217C3.57267 6.30217 4.00824 5.8666 4.00824 5.32931C4.00824 4.79201 3.57267 4.35645 3.03537 4.35645C2.49807 4.35645 2.0625 4.79201 2.0625 5.32931C2.0625 5.8666 2.49807 6.30217 3.03537 6.30217Z" fill="#61B2E4"/>
<path id="Vector_3" d="M4.65646 9.22062C5.19376 9.22062 5.62933 8.78506 5.62933 8.24776C5.62933 7.71047 5.19376 7.2749 4.65646 7.2749C4.11916 7.2749 3.68359 7.71047 3.68359 8.24776C3.68359 8.78506 4.11916 9.22062 4.65646 9.22062Z" fill="#5C9E31"/>
<path id="Vector_4" d="M7.90256 10.1933C8.43986 10.1933 8.87542 9.75771 8.87542 9.22042C8.87542 8.68312 8.43986 8.24756 7.90256 8.24756C7.36526 8.24756 6.92969 8.68312 6.92969 9.22042C6.92969 9.75771 7.36526 10.1933 7.90256 10.1933Z" fill="#FCEA2B"/>
<path id="Vector_5" d="M11.1447 9.86906C11.682 9.86906 12.1176 9.4335 12.1176 8.8962C12.1176 8.3589 11.682 7.92334 11.1447 7.92334C10.6074 7.92334 10.1719 8.3589 10.1719 8.8962C10.1719 9.4335 10.6074 9.86906 11.1447 9.86906Z" fill="#D22F27"/>
</g>
<g id="line">
<path id="Vector_6" d="M15.6839 6.30193C15.6028 6.05871 15.4537 5.62093 15.0353 5.32907C14.5294 4.97884 13.8582 5.00154 13.7382 5.00478C13.4917 5.01451 13.3555 5.05667 13.0896 5.00478C12.9015 4.96587 12.5934 4.9075 12.441 4.6805C12.3113 4.48917 12.3924 4.33027 12.441 3.70764C12.4799 3.21796 12.4961 2.97151 12.441 2.73478C12.321 2.2224 11.9578 1.9046 11.7924 1.76192C11.4519 1.46357 11.0206 1.25603 10.171 1.11334C9.58078 1.01282 8.63061 0.918772 7.25238 1.11334C6.55516 1.21063 5.48176 1.39547 4.65807 1.67112C4.08408 1.8592 3.44523 2.12836 2.71233 2.64398C2.70585 2.64722 2.69936 2.65046 2.69612 2.65371C1.58056 3.38011 0.9482 4.66428 1.00333 5.9971C1.29843 13.1541 14.2441 14.0556 15.6839 7.92336C15.7131 7.72879 15.9401 7.064 15.6839 6.30193ZM8.94193 4.39512C8.44577 4.39512 8.04689 3.99301 8.04689 3.50009C8.04689 3.00394 8.44577 2.60506 8.94193 2.60506H9.82075C10.3137 2.60506 10.7158 3.00394 10.7158 3.50009C10.7158 3.74655 10.6153 3.97031 10.4531 4.13245C10.291 4.2946 10.0672 4.39512 9.82075 4.39512H8.94193Z" stroke="black" stroke-width="0.648576" stroke-miterlimit="10" stroke-linecap="round" stroke-linejoin="round"/>
<path id="Vector_7" d="M3.03537 6.30217C3.57267 6.30217 4.00824 5.8666 4.00824 5.32931C4.00824 4.79201 3.57267 4.35645 3.03537 4.35645C2.49807 4.35645 2.0625 4.79201 2.0625 5.32931C2.0625 5.8666 2.49807 6.30217 3.03537 6.30217Z" stroke="black" stroke-width="0.648576" stroke-miterlimit="10"/>
<path id="Vector_8" d="M4.65646 9.22062C5.19376 9.22062 5.62933 8.78506 5.62933 8.24776C5.62933 7.71047 5.19376 7.2749 4.65646 7.2749C4.11916 7.2749 3.68359 7.71047 3.68359 8.24776C3.68359 8.78506 4.11916 9.22062 4.65646 9.22062Z" stroke="black" stroke-width="0.648576" stroke-miterlimit="10" stroke-linecap="round" stroke-linejoin="round"/>
<path id="Vector_9" d="M7.90256 10.1933C8.43986 10.1933 8.87542 9.75771 8.87542 9.22042C8.87542 8.68312 8.43986 8.24756 7.90256 8.24756C7.36526 8.24756 6.92969 8.68312 6.92969 9.22042C6.92969 9.75771 7.36526 10.1933 7.90256 10.1933Z" stroke="black" stroke-width="0.648576" stroke-miterlimit="10"/>
<path id="Vector_10" d="M11.1447 9.86906C11.682 9.86906 12.1176 9.4335 12.1176 8.8962C12.1176 8.3589 11.682 7.92334 11.1447 7.92334C10.6074 7.92334 10.1719 8.3589 10.1719 8.8962C10.1719 9.4335 10.6074 9.86906 11.1447 9.86906Z" stroke="black" stroke-width="0.648576" stroke-miterlimit="10"/>
</g>
</g>
</svg>
