<svg width="17" height="25" viewBox="0 0 17 25" fill="none" xmlns="http://www.w3.org/2000/svg">
<path d="M8.33333 12.5C8.33333 11.3949 8.77232 10.3351 9.55372 9.55372C10.3351 8.77232 11.3949 8.33333 12.5 8.33333C13.6051 8.33333 14.6649 8.77232 15.4463 9.55372C16.2277 10.3351 16.6667 11.3949 16.6667 12.5C16.6667 13.6051 16.2277 14.6649 15.4463 15.4463C14.6649 16.2277 13.6051 16.6667 12.5 16.6667C11.3949 16.6667 10.3351 16.2277 9.55372 15.4463C8.77232 14.6649 8.33333 13.6051 8.33333 12.5Z" fill="#1ABCFE"/>
<path d="M0 20.8333C0 19.7283 0.438987 18.6685 1.22039 17.8871C2.00179 17.1057 3.0616 16.6667 4.16667 16.6667H8.33333V20.8333C8.33333 21.9384 7.89435 22.9982 7.11294 23.7796C6.33154 24.561 5.27174 25 4.16667 25C3.0616 25 2.00179 24.561 1.22039 23.7796C0.438987 22.9982 0 21.9384 0 20.8333Z" fill="#0ACF83"/>
<path d="M8.33333 0V8.33333H12.5C13.6051 8.33333 14.6649 7.89435 15.4463 7.11294C16.2277 6.33154 16.6667 5.27174 16.6667 4.16667C16.6667 3.0616 16.2277 2.00179 15.4463 1.22039C14.6649 0.438987 13.6051 0 12.5 0H8.33333Z" fill="#FF7262"/>
<path d="M0 4.16667C0 5.27174 0.438987 6.33154 1.22039 7.11294C2.00179 7.89435 3.0616 8.33333 4.16667 8.33333H8.33333V0H4.16667C3.0616 0 2.00179 0.438987 1.22039 1.22039C0.438987 2.00179 0 3.0616 0 4.16667Z" fill="#F24E1E"/>
<path d="M0 12.5C0 13.6051 0.438987 14.6649 1.22039 15.4463C2.00179 16.2277 3.0616 16.6667 4.16667 16.6667H8.33333V8.33333H4.16667C3.0616 8.33333 2.00179 8.77232 1.22039 9.55372C0.438987 10.3351 0 11.3949 0 12.5Z" fill="#A259FF"/>
</svg>
