<svg width="56" height="52" viewBox="0 0 56 52" fill="none" xmlns="http://www.w3.org/2000/svg">
  <path fill-rule="evenodd" clip-rule="evenodd"
    d="M55.7773 6.73599C56.5721 2.86156 52.7666 -0.358162 49.0773 1.06726L3.85434 18.5398C-0.265615 20.1316 -0.44919 25.8928 3.56104 27.7435L13.4093 32.289L18.0943 48.6863C18.3377 49.538 19.0135 50.1975 19.871 50.4198C20.7285 50.6418 21.6395 50.3938 22.2659 49.7673L29.4826 42.5505L39.5918 50.1325C42.5263 52.3333 46.7528 50.7303 47.4898 47.137L55.7773 6.73599ZM5.65634 23.2038L50.8793 5.73126L42.5918 46.1325L30.7481 37.2495C29.7528 36.503 28.3601 36.602 27.4803 37.4818L24.3893 40.5728L25.3181 35.465L43.5158 17.2673C44.4016 16.3817 44.4951 14.9774 43.7348 13.9821C42.9746 12.9867 41.5953 12.7076 40.5078 13.329L15.3762 27.6898L5.65634 23.2038ZM18.4405 31.6975L19.9564 37.0035L20.5384 33.8023C20.6294 33.302 20.8708 32.8413 21.2304 32.4818L26.7801 26.9323L18.4405 31.6975Z"
    fill="#BFBFBF" />
</svg>